<svg width="50" height="39" viewBox="0 0 50 39" fill="none" xmlns="http://www.w3.org/2000/svg">
<path d="M7.692 0C3.467 0 0 3.46599 0 7.69299V30.769C0 34.994 3.467 38.462 7.692 38.462H11.538C12.048 38.462 12.538 38.259 12.898 37.899C13.259 37.538 13.462 37.049 13.462 36.539V34.616H15.385V36.539C15.385 37.049 15.587 37.538 15.948 37.899C16.309 38.259 16.798 38.462 17.308 38.462H32.692C33.202 38.462 33.691 38.259 34.052 37.899C34.413 37.538 34.615 37.049 34.615 36.539V34.616H36.538V36.539C36.538 37.049 36.741 37.538 37.102 37.899C37.462 38.259 37.952 38.462 38.462 38.462H42.308C46.533 38.462 50 34.994 50 30.769V7.69299C50 3.46599 46.533 0 42.308 0H7.692ZM7.692 3.84601H42.308C44.452 3.84601 46.154 5.54599 46.154 7.69299V30.769C46.154 32.914 44.452 34.616 42.308 34.616H40.385V32.693C40.385 32.182 40.182 31.693 39.821 31.333C39.461 30.972 38.972 30.769 38.462 30.769H32.692C32.182 30.769 31.693 30.972 31.332 31.333C30.972 31.693 30.769 32.182 30.769 32.693V34.616H19.231V32.693C19.231 32.182 19.028 31.693 18.668 31.333C18.307 30.972 17.818 30.769 17.308 30.769H11.538C11.028 30.769 10.539 30.972 10.179 31.333C9.818 31.693 9.61501 32.182 9.61501 32.693V34.616H7.692C5.548 34.616 3.84599 32.914 3.84599 30.769V7.69299C3.84599 5.54599 5.548 3.84601 7.692 3.84601ZM15.385 7.81403C13.192 7.81403 11.598 9.366 11.598 12.198C11.598 14.05 12.387 15.306 13.521 16.468C13.963 17.627 13.146 18.027 12.981 18.089C10.688 18.918 7.812 20.143 7.812 21.635V22.416C7.812 24.45 11.737 24.879 15.385 24.879C19.038 24.879 22.958 24.45 22.958 22.418V21.635C22.958 20.096 20.073 18.885 17.669 18.089C17.556 18.052 16.873 17.781 17.308 16.466C18.438 15.304 19.112 14.043 19.112 12.2C19.112 9.36401 17.575 7.81403 15.385 7.81403ZM35.577 7.87103C34.408 7.87103 33.302 8.04102 32.271 8.47302C31.26 8.89002 30.341 9.503 29.567 10.276C28.794 11.05 28.181 11.969 27.765 12.981C27.329 14.01 27.163 15.154 27.163 16.346C27.163 17.6 27.346 18.723 27.765 19.771C28.181 20.823 28.76 21.723 29.508 22.475C30.246 23.221 31.127 23.808 32.152 24.219C33.225 24.632 34.368 24.836 35.517 24.819C36.229 24.819 36.863 24.825 37.44 24.76C38.013 24.696 38.625 24.594 39.242 24.46V22.356C38.679 22.519 38.05 22.679 37.381 22.777C36.712 22.873 36.087 22.896 35.515 22.896C34.708 22.896 33.912 22.758 33.173 22.475C32.45 22.195 31.795 21.765 31.25 21.214C30.647 20.64 30.176 19.944 29.867 19.171C29.537 18.344 29.387 17.402 29.387 16.346C29.387 15.356 29.579 14.46 29.927 13.643C30.281 12.825 30.735 12.096 31.312 11.539C31.913 10.962 32.581 10.568 33.292 10.277C34.008 9.98304 34.773 9.79602 35.577 9.79602C36.423 9.79602 37.19 9.95402 37.921 10.218C38.652 10.479 39.302 10.871 39.844 11.418C40.381 11.956 40.808 12.606 41.106 13.402C41.406 14.2 41.527 15.162 41.527 16.227C41.527 16.829 41.471 17.385 41.346 17.969C41.243 18.506 41.081 19.029 40.865 19.531H39.363V11.658H37.077V12.26C36.845 12.042 36.582 11.86 36.296 11.719C35.94 11.55 35.548 11.468 35.154 11.479C34.612 11.479 34.092 11.598 33.592 11.839C33.092 12.069 32.643 12.396 32.269 12.8C31.885 13.248 31.6 13.81 31.369 14.423C31.138 15.039 31.008 15.714 31.008 16.468C31.008 17.198 31.119 17.887 31.308 18.51C31.494 19.135 31.708 19.671 32.029 20.073C32.356 20.487 32.783 20.754 33.231 20.973C33.679 21.193 34.156 21.335 34.673 21.335C35.025 21.335 35.313 21.314 35.515 21.275C35.721 21.233 35.938 21.179 36.175 21.094C36.387 21.025 36.54 20.958 36.717 20.854C36.887 20.75 37.081 20.61 37.258 20.493L37.379 21.154H42.365C42.823 20.472 43.168 19.722 43.388 18.931C43.658 17.975 43.748 17.054 43.748 16.166C43.748 14.91 43.558 13.754 43.146 12.741C42.75 11.768 42.156 10.888 41.404 10.156C40.668 9.42301 39.789 8.85002 38.821 8.47302C37.788 8.06702 36.686 7.86305 35.575 7.87305L35.577 7.87103ZM35.456 13.402C35.754 13.402 36.062 13.402 36.298 13.462C36.533 13.521 36.74 13.627 37.019 13.762V18.691C36.786 18.906 36.523 19.088 36.238 19.231C35.962 19.384 35.652 19.467 35.337 19.471C34.663 19.471 34.188 19.187 33.894 18.691C33.6 18.194 33.413 17.483 33.413 16.468C33.413 15.546 33.6 14.8 33.954 14.243C34.105 13.979 34.324 13.762 34.589 13.614C34.854 13.466 35.154 13.393 35.458 13.402H35.456Z" fill="#5CBCD2"/>
</svg>
