<svg width="44" height="38" viewBox="0 0 44 38" fill="none" xmlns="http://www.w3.org/2000/svg">
<path d="M0 28.125H43.75V31.25H0V28.125Z" fill="#5CBCD2"/>
<path d="M0 34.375H43.75V37.5H0V34.375Z" fill="#5CBCD2"/>
<path d="M34.375 9.375C33.757 9.375 33.153 9.55798 32.639 9.90198C32.125 10.245 31.724 10.733 31.488 11.304C31.251 11.875 31.189 12.503 31.31 13.11C31.431 13.716 31.728 14.273 32.165 14.71C32.602 15.147 33.159 15.444 33.765 15.565C34.372 15.686 35 15.624 35.571 15.387C36.142 15.151 36.63 14.75 36.973 14.236C37.317 13.722 37.5 13.118 37.5 12.5C37.5 11.671 37.171 10.876 36.585 10.29C35.999 9.70398 35.204 9.375 34.375 9.375Z" fill="#5CBCD2"/>
<path d="M21.875 18.75C20.639 18.75 19.43 18.383 18.403 17.697C17.375 17.01 16.574 16.034 16.101 14.892C15.628 13.75 15.504 12.493 15.745 11.281C15.986 10.068 16.582 8.95498 17.456 8.08098C18.33 7.20698 19.443 6.61098 20.656 6.36998C21.868 6.12898 23.125 6.253 24.267 6.726C25.409 7.199 26.385 8 27.072 9.028C27.758 10.055 28.125 11.264 28.125 12.5C28.123 14.157 27.464 15.745 26.292 16.917C25.12 18.089 23.532 18.748 21.875 18.75ZM21.875 9.37499C21.257 9.37499 20.653 9.55797 20.139 9.90197C19.625 10.245 19.224 10.733 18.988 11.304C18.751 11.875 18.689 12.503 18.81 13.11C18.931 13.716 19.228 14.273 19.665 14.71C20.102 15.147 20.659 15.444 21.265 15.565C21.872 15.686 22.5 15.624 23.071 15.387C23.642 15.151 24.13 14.75 24.473 14.236C24.817 13.722 25 13.118 25 12.5C24.999 11.671 24.67 10.877 24.084 10.291C23.498 9.705 22.704 9.37599 21.875 9.37499Z" fill="#5CBCD2"/>
<path d="M9.375 9.375C8.757 9.375 8.15298 9.55798 7.63898 9.90198C7.12498 10.245 6.72398 10.733 6.48798 11.304C6.25098 11.875 6.189 12.503 6.31 13.11C6.431 13.716 6.72798 14.273 7.16498 14.71C7.60198 15.147 8.15901 15.444 8.76501 15.565C9.37201 15.686 9.99998 15.624 10.571 15.387C11.142 15.151 11.63 14.75 11.973 14.236C12.317 13.722 12.5 13.118 12.5 12.5C12.5 11.671 12.171 10.876 11.585 10.29C10.999 9.70398 10.204 9.375 9.375 9.375Z" fill="#5CBCD2"/>
<path d="M40.625 25H3.125C2.297 24.998 1.50303 24.668 0.91803 24.082C0.33203 23.497 0.002 22.703 0 21.875V3.125C0.002 2.297 0.33203 1.50303 0.91803 0.91803C1.50303 0.33203 2.297 0.002 3.125 0H40.625C41.453 0.002 42.247 0.33203 42.832 0.91803C43.418 1.50303 43.748 2.297 43.75 3.125V21.875C43.749 22.703 43.419 23.498 42.833 24.083C42.248 24.669 41.453 24.999 40.625 25ZM40.625 3.125H3.125V21.875H40.625V3.125Z" fill="#5CBCD2"/>
</svg>
