<svg width="80" height="70" viewBox="0 0 80 70" fill="none" xmlns="http://www.w3.org/2000/svg">
<path d="M79.6688 27.2652L66.2787 10.9451C65.7887 10.3451 64.8787 10.1951 64.1987 10.6051L55.5488 15.7652H44.2787C44.1287 15.7652 43.9887 15.7851 43.8487 15.8251L35.1087 18.1851L26.0287 15.8651L17.2187 10.6051C16.5487 10.2051 15.6587 10.3351 15.1587 10.9251L0.34869 28.1251C-0.18131 28.7451 -0.101236 29.6451 0.548764 30.1651L8.30877 36.4351L15.2687 45.2351C13.2387 47.2751 13.2787 50.4851 15.3887 52.4751C16.3287 53.3551 17.5287 53.8451 18.7587 53.9651C18.7087 54.2251 18.6887 54.4951 18.6887 54.7551C18.6887 56.1451 19.2687 57.4551 20.3187 58.4351C21.3587 59.4151 22.7587 59.9651 24.2387 59.9651C24.2587 59.9651 24.2788 59.9551 24.2988 59.9551C24.2888 59.9951 24.2888 60.0251 24.2888 60.0651C24.2888 61.4551 24.8688 62.7551 25.9188 63.7451C26.9588 64.7251 28.3587 65.2652 29.8387 65.2652C30.1287 65.2652 30.4187 65.2451 30.6987 65.2051C30.8187 66.3551 31.3488 67.4851 32.2988 68.3651C33.3788 69.3851 34.7987 69.8852 36.2187 69.8852C37.6387 69.8852 39.0587 69.3851 40.1387 68.3651L40.9787 67.5751L41.3387 67.8451C42.4087 68.8151 43.7987 69.3051 45.1887 69.3051C46.6087 69.3051 48.0287 68.7951 49.1087 67.7851C50.2187 66.7451 50.7587 65.3852 50.7287 64.0252C52.1787 64.0452 53.6387 63.5351 54.7387 62.5051C55.8387 61.4651 56.3787 60.1051 56.3587 58.7451C57.8687 58.7651 59.2987 58.2251 60.3687 57.2251C61.4687 56.1851 62.0087 54.8251 61.9887 53.4651C63.4387 53.4851 64.8887 52.9751 65.9987 51.9451C67.8787 50.1751 68.1187 47.4551 66.7187 45.4351L71.8088 35.4451L79.4487 29.2752C80.0887 28.7652 80.1788 27.8852 79.6688 27.2652ZM16.7187 13.7951L23.0588 17.5751L9.26873 33.3251L3.7387 28.8651L16.7187 13.7951ZM17.6087 47.1951L19.5287 45.4052C19.5787 45.3452 19.6387 45.2951 19.7087 45.2451C20.0787 44.9651 20.5287 44.7951 21.0087 44.7551C21.0287 44.7551 21.0388 44.7551 21.0488 44.7451C21.1188 44.7451 21.1887 44.7451 21.2587 44.7451C21.9187 44.7551 22.5287 45.0051 22.9787 45.4451C23.8587 46.3251 23.8187 47.7652 22.8687 48.6452L21.0187 50.3852C20.0787 51.2652 18.5487 51.2652 17.6087 50.3852C16.6687 49.5052 16.6687 48.0751 17.6087 47.1951ZM22.5287 56.3551C22.0787 55.9251 21.8287 55.3651 21.8287 54.7551C21.8287 54.1551 22.0787 53.5951 22.5287 53.1651L26.2387 49.6851C26.9487 49.0151 28.0687 48.8351 28.9787 49.2451C29.9187 49.6551 30.4388 50.6151 30.2988 51.5751C30.2288 52.0851 29.9787 52.5651 29.5887 52.9351L25.9387 56.3551C25.4787 56.7851 24.8787 57.0152 24.2387 57.0152C23.5887 57.0152 22.9887 56.7851 22.5287 56.3551ZM28.1287 61.6552C27.6787 61.2352 27.4288 60.6651 27.4288 60.0651C27.4288 59.4651 27.6787 58.8951 28.1287 58.4651L31.8387 54.9851C32.5987 54.2751 33.8187 54.1252 34.7487 54.6352C35.5987 55.0952 36.0487 56.0051 35.8987 56.9151C35.8187 57.4151 35.5687 57.8751 35.1887 58.2351L31.5388 61.6552C31.0788 62.0852 30.4787 62.3251 29.8387 62.3251C29.1887 62.3251 28.5887 62.0852 28.1287 61.6552ZM34.5087 66.2851C33.5787 65.4051 33.5787 63.9751 34.5087 63.0951L36.4288 61.2951C36.4788 61.2451 36.5487 61.1952 36.6087 61.1452C36.9187 60.9052 37.2888 60.7451 37.6788 60.6751C37.6888 60.6751 37.6987 60.6751 37.7087 60.6751C37.7687 60.6651 37.8387 60.6552 37.9087 60.6452C37.9387 60.6452 37.9687 60.6452 37.9887 60.6452C38.0487 60.6452 38.0987 60.6352 38.1587 60.6352C38.8187 60.6452 39.4287 60.8951 39.8787 61.3451C39.9287 61.4051 39.9887 61.4552 40.0287 61.5152C40.7487 62.4052 40.6587 63.7151 39.7587 64.5551L37.9188 66.2851C36.9788 67.1651 35.4487 67.1651 34.5087 66.2851ZM63.7787 49.8651C62.8387 50.7451 61.3087 50.7451 60.3687 49.8651C60.3387 49.8351 60.2987 49.8052 60.2687 49.7752L50.1788 40.2151C49.5688 39.6351 48.5787 39.6351 47.9587 40.2051C47.3487 40.7751 47.3387 41.7051 47.9487 42.2851L58.1487 51.9451C58.1487 51.9451 58.1487 51.9451 58.1487 51.9551C59.0887 52.8351 59.0887 54.2652 58.1487 55.1452C57.6987 55.5652 57.0887 55.8051 56.4487 55.8051C55.8087 55.8051 55.1987 55.5652 54.7487 55.1452L47.9288 48.6751C47.3188 48.1051 46.3187 48.0951 45.7087 48.6651C45.0887 49.2351 45.0887 50.1751 45.6987 50.7451L52.4087 57.1151C52.4487 57.1551 52.4787 57.1951 52.5187 57.2251C53.4587 58.1051 53.4587 59.5451 52.5187 60.4251C51.5787 61.3051 50.0587 61.3051 49.1187 60.4251L45.3987 56.8952C44.7887 56.3152 43.7888 56.3052 43.1788 56.8852C42.5588 57.4552 42.5588 58.3851 43.1688 58.9651L46.7888 62.3952C46.8188 62.4352 46.8587 62.4751 46.8987 62.5051C47.8287 63.3851 47.8287 64.8151 46.8987 65.6951C45.9587 66.5851 44.4287 66.5751 43.4887 65.6951C43.3887 65.5951 43.2587 65.5251 43.1387 65.4351C43.0287 65.3651 43.0088 65.3051 43.0588 65.1951C43.1088 65.0751 43.1887 64.9651 43.2387 64.8451C43.2987 64.7151 43.3387 64.5751 43.3887 64.4451C43.6287 63.7151 43.6987 62.9351 43.5887 62.1751C43.3887 60.7251 42.5387 59.4251 41.2487 58.5951C40.5487 58.1451 39.7488 57.8551 38.9188 57.7451C39.3188 56.0751 38.8287 54.2652 37.5687 53.0152C36.5287 51.9852 35.1287 51.4052 33.6187 51.3852C33.5687 51.3852 33.5087 51.3852 33.4587 51.3852C33.4887 50.0352 32.9687 48.6951 31.9687 47.7051C30.9287 46.6751 29.5287 46.1051 28.0187 46.0851C27.5687 46.0751 27.1188 46.1151 26.6788 46.2151C26.4988 44.9951 25.8387 43.8651 24.8487 43.0651C23.8587 42.2651 22.6188 41.8151 21.2988 41.7951C19.9088 41.7851 18.5487 42.2652 17.5187 43.1352L11.4487 35.4751L25.9587 18.8952L30.5787 20.0751L24.5388 30.0751C23.8088 31.2851 23.6287 32.6852 24.0287 34.0252C24.4187 35.3652 25.3487 36.4751 26.6387 37.1651C26.7187 37.2051 26.7987 37.2451 26.8787 37.2851C26.8887 37.2851 26.8887 37.2851 26.8987 37.2951C27.1087 37.3951 27.3388 37.4851 27.5588 37.5551C28.6188 37.8951 29.7487 37.9352 30.8487 37.6452C32.2687 37.2752 33.4587 36.4051 34.1887 35.2051L38.1187 28.7051L45.1187 29.1751L63.7787 46.6751C64.7187 47.5551 64.7187 48.9851 63.7787 49.8651ZM64.4288 43.1151L46.9288 26.7051C46.8888 26.6751 46.8587 26.6451 46.8187 26.6151C46.5687 26.4151 46.2588 26.2952 45.9288 26.2752L37.3487 25.7051C36.7587 25.6651 36.1687 25.9651 35.8687 26.4451L31.4587 33.7551C31.1487 34.2751 30.6287 34.6551 30.0087 34.8151C29.3887 34.9751 28.7388 34.8951 28.1788 34.6051C27.6188 34.3051 27.2188 33.8251 27.0488 33.2351C26.8788 32.6551 26.9587 32.0452 27.2687 31.5252L33.1587 21.7752L35.5488 21.1352C35.5688 21.1252 35.5787 21.1251 35.5987 21.1151L44.4987 18.7051H55.2687L68.6987 34.7251L64.4288 43.1151ZM70.7587 32.4151L58.3287 17.5951L64.6688 13.8051L76.2787 27.9551L70.7587 32.4151Z" fill="#FC8047"/>
<path d="M48.4687 12.9951C48.8687 12.9951 49.2686 12.855 49.5786 12.565L60.2887 2.51508C60.8987 1.94508 60.8987 1.005 60.2887 0.435C59.6787 -0.145 58.6786 -0.145 58.0686 0.435L47.3587 10.485C46.7387 11.065 46.7387 11.995 47.3587 12.565C47.6587 12.855 48.0587 12.9951 48.4687 12.9951Z" fill="#FC8047"/>
<path d="M30.4187 12.565C30.7287 12.855 31.1287 12.9951 31.5287 12.9951C31.9287 12.9951 32.3387 12.855 32.6387 12.565C33.2587 11.995 33.2587 11.065 32.6387 10.485L21.9287 0.435C21.3087 -0.145 20.3186 -0.145 19.7086 0.435C19.0986 1.005 19.0986 1.94508 19.7086 2.51508L30.4187 12.565Z" fill="#FC8047"/>
<path d="M39.9987 12.9951C40.8687 12.9951 41.5686 12.3351 41.5686 11.5251V3.20508C41.5686 2.39508 40.8687 1.73511 39.9987 1.73511C39.1287 1.73511 38.4287 2.39508 38.4287 3.20508V11.5251C38.4287 12.3351 39.1287 12.9951 39.9987 12.9951Z" fill="#FC8047"/>
</svg>
