<svg width="80" height="74" viewBox="0 0 80 74" fill="none" xmlns="http://www.w3.org/2000/svg">
<path d="M70.704 0H8.485C3.806 0 0 3.08 0 6.87V25.17C0 28.95 3.806 32.03 8.485 32.03H25.489C25.672 35.98 27.709 39.5699 31.11 41.9399V43.47H30.756C22.959 43.47 16.616 48.6 16.616 54.9V70.91C16.616 72.18 17.88 73.2 19.444 73.2H59.392C60.955 73.2 62.22 72.18 62.22 70.91V54.9C62.22 48.6 55.876 43.47 48.079 43.47V41.9399C51.48 39.5699 53.517 35.98 53.7 32.03H56.563V38.89C56.563 39.82 57.251 40.65 58.309 41C58.66 41.12 59.027 41.1799 59.392 41.1799C60.126 41.1799 60.85 40.95 61.391 40.51L71.969 31.95C76.051 31.46 79.189 28.6 79.189 25.17V6.87C79.189 3.08 75.383 0 70.704 0ZM39.594 51.67L37.709 50.14C38.318 50.26 38.944 50.33 39.594 50.33C40.245 50.33 40.871 50.26 41.479 50.14L39.594 51.67ZM56.563 54.9V68.63H22.272V54.9C22.272 51.8 24.852 49.2 28.357 48.35C28.439 48.83 28.659 49.29 29.11 49.66L36.766 55.85V64.05C36.766 65.32 38.031 66.34 39.594 66.34C41.158 66.34 42.423 65.32 42.423 64.05V55.85L50.079 49.66C50.503 49.31 50.713 48.8799 50.811 48.4399C54.145 49.3599 56.563 51.9 56.563 54.9ZM43.643 38.9299C42.878 39.3599 42.423 40.0599 42.423 40.8099V43.47C42.423 44.73 41.155 45.75 39.594 45.75C38.034 45.75 36.766 44.73 36.766 43.47V40.8099C36.766 40.0599 36.311 39.3599 35.546 38.9299C32.809 37.3999 31.11 34.54 31.11 31.46C31.11 26.73 34.916 22.88 39.594 22.88C44.273 22.88 48.079 26.73 48.079 31.46C48.079 34.54 46.38 37.3999 43.643 38.9299ZM73.533 25.17C73.533 26.43 72.265 27.45 70.704 27.45C69.953 27.45 69.235 27.69 68.705 28.12L62.22 33.37V29.74C62.22 28.48 60.955 27.45 59.392 27.45H53.061C51.235 22.15 45.891 18.3 39.594 18.3C33.298 18.3 27.954 22.15 26.128 27.45H8.485C6.924 27.45 5.65601 26.43 5.65601 25.17V6.87C5.65601 5.6 6.924 4.57996 8.485 4.57996H70.704C72.265 4.57996 73.533 5.6 73.533 6.87V25.17Z" fill="#FC8047"/>
<path d="M28.281 16.02C29.843 16.02 31.109 14.99 31.109 13.73C31.109 12.47 29.843 11.4399 28.281 11.4399C26.719 11.4399 25.453 12.47 25.453 13.73C25.453 14.99 26.719 16.02 28.281 16.02Z" fill="#FFA67C"/>
<path d="M39.594 16.02C41.156 16.02 42.422 14.99 42.422 13.73C42.422 12.47 41.156 11.4399 39.594 11.4399C38.032 11.4399 36.766 12.47 36.766 13.73C36.766 14.99 38.032 16.02 39.594 16.02Z" fill="#FFA67C"/>
<path d="M50.907 16.02C52.469 16.02 53.736 14.99 53.736 13.73C53.736 12.47 52.469 11.4399 50.907 11.4399C49.345 11.4399 48.079 12.47 48.079 13.73C48.079 14.99 49.345 16.02 50.907 16.02Z" fill="#FFA67C"/>
</svg>
