<svg width="63" height="50" viewBox="0 0 63 50" fill="none" xmlns="http://www.w3.org/2000/svg">
<path d="M26.562 28.125H20.312C19.898 28.125 19.501 27.96 19.208 27.667C18.915 27.374 18.75 26.977 18.75 26.562V20.312C18.75 19.898 18.915 19.501 19.208 19.208C19.501 18.915 19.898 18.75 20.312 18.75H26.562C26.977 18.75 27.374 18.915 27.667 19.208C27.96 19.501 28.125 19.898 28.125 20.312V23.938C29.21 22.68 30.762 21.875 32.5 21.875H45.873L46.522 21.14C46.734 20.876 46.857 20.552 46.875 20.215C46.853 19.824 46.688 19.455 46.411 19.179L40.625 14.062V4.68799C40.625 4.27299 40.46 3.87601 40.167 3.58301C39.874 3.29001 39.477 3.125 39.062 3.125H35.938C35.523 3.125 35.126 3.29001 34.833 3.58301C34.54 3.87601 34.375 4.27299 34.375 4.68799V8.52502L25.732 0.870972C25.195 0.390972 24.165 0 23.442 0C22.72 0 21.691 0.390972 21.15 0.870972L0.46698 19.182C0.18898 19.456 0.022 19.824 0 20.215C0.017 20.549 0.137985 20.87 0.346985 21.132L2.18201 23.213C2.45901 23.492 2.83002 23.659 3.22302 23.68C3.55402 23.663 3.87301 23.544 4.13501 23.34L6.25 21.473V37.5C6.25 38.329 6.57898 39.124 7.16498 39.71C7.75098 40.296 8.546 40.625 9.375 40.625H26.562V28.125ZM61.458 43.75H57.812V28.125C57.812 26.399 56.554 25 55 25H32.5C30.946 25 29.688 26.399 29.688 28.125V43.75H26.042C25.766 43.75 25.501 43.86 25.305 44.055C25.11 44.251 25 44.516 25 44.792V45.833C25.004 46.936 25.443 47.992 26.222 48.773C27.001 49.553 28.057 49.994 29.16 50H58.34C59.443 49.994 60.499 49.553 61.278 48.773C62.057 47.992 62.496 46.936 62.5 45.833V44.792C62.5 44.516 62.39 44.251 62.195 44.055C61.999 43.86 61.734 43.75 61.458 43.75ZM53.125 43.75H34.375V29.688H53.125V43.75Z" fill="#5CBCD2"/>
</svg>
