<svg width="78" height="72" viewBox="0 0 78 72" fill="none" xmlns="http://www.w3.org/2000/svg">
<path d="M71.921 35.6699C73.784 34.4099 75 32.37 75 30.08C75 26.47 72.012 23.4999 68.207 23.1699C64 14.8199 55.891 8.70998 46.231 6.59998C46.038 2.92998 42.761 0 38.75 0C34.739 0 31.462 2.92998 31.269 6.59998C21.61 8.70998 13.499 14.8199 9.29303 23.1699C5.48703 23.4999 2.5 26.47 2.5 30.08C2.5 32.37 3.71598 34.4099 5.57898 35.6699C2.27898 37.1799 0 40.33 0 43.96V47.4299C0 48.0699 0.56 48.59 1.25 48.59H9.30902C13.171 56.22 20.465 62.1 29.134 64.59C28.89 65.39 28.75 66.23 28.75 67.1V70.5699C28.75 71.2099 29.31 71.73 30 71.73H47.5C48.19 71.73 48.75 71.2099 48.75 70.5699V67.1C48.75 66.23 48.61 65.39 48.367 64.59C57.035 62.1 64.329 56.22 68.191 48.59H76.25C76.94 48.59 77.5 48.0699 77.5 47.4299V43.96C77.5 40.33 75.221 37.1799 71.921 35.6699ZM72.5 30.08C72.5 32.63 70.257 34.7 67.5 34.7C64.742 34.7 62.5 32.63 62.5 30.08C62.5 27.52 64.742 25.45 67.5 25.45C70.257 25.45 72.5 27.52 72.5 30.08ZM38.75 2.30994C41.508 2.30994 43.75 4.38994 43.75 6.93994C43.75 9.48994 41.508 11.5699 38.75 11.5699C35.992 11.5699 33.75 9.48994 33.75 6.93994C33.75 4.38994 35.992 2.30994 38.75 2.30994ZM5 30.08C5 27.52 7.243 25.45 10 25.45C12.758 25.45 15 27.52 15 30.08C15 32.63 12.758 34.7 10 34.7C7.243 34.7 5 32.63 5 30.08ZM2.5 43.96C2.5 40.13 5.864 37.02 10 37.02C14.136 37.02 17.5 40.13 17.5 43.96V46.27H2.5V43.96ZM46.25 69.4099H31.25V67.1C31.25 63.27 34.614 60.1599 38.75 60.1599C42.886 60.1599 46.25 63.27 46.25 67.1V69.4099ZM33.75 53.22C33.75 50.66 35.992 48.59 38.75 48.59C41.508 48.59 43.75 50.66 43.75 53.22C43.75 55.77 41.508 57.84 38.75 57.84C35.992 57.84 33.75 55.77 33.75 53.22ZM47.382 62.45C46.396 60.89 44.931 59.6199 43.171 58.8099C45.034 57.5499 46.25 55.51 46.25 53.22C46.25 49.39 42.886 46.27 38.75 46.27C34.614 46.27 31.25 49.39 31.25 53.22C31.25 55.51 32.466 57.5499 34.329 58.8099C32.57 59.6199 31.105 60.89 30.117 62.45C22.384 60.3 15.804 55.23 12.087 48.59H18.75C19.44 48.59 20 48.0699 20 47.4299V43.96C20 40.33 17.721 37.1799 14.421 35.6699C16.284 34.4099 17.5 32.37 17.5 30.08C17.5 26.87 15.14 24.18 11.948 23.38C15.887 16.14 23.065 10.8399 31.561 8.90991C32.034 10.3799 33.02 11.6499 34.327 12.5299C31.029 14.0499 28.75 17.1899 28.75 20.8199V24.2899C28.75 24.9299 29.31 25.45 30 25.45H47.5C48.19 25.45 48.75 24.9299 48.75 24.2899V20.8199C48.75 17.1899 46.471 14.0499 43.171 12.5299C44.477 11.6399 45.465 10.3799 45.937 8.90991C54.436 10.8399 61.611 16.14 65.551 23.38C62.359 24.18 60 26.87 60 30.08C60 32.37 61.216 34.4099 63.079 35.6699C59.779 37.1799 57.5 40.33 57.5 43.96V47.4299C57.5 48.0699 58.06 48.59 58.75 48.59H65.413C61.695 55.23 55.116 60.3 47.382 62.45ZM38.75 13.88C42.886 13.88 46.25 16.9899 46.25 20.8199V23.14H31.25V20.8199C31.25 16.9899 34.614 13.88 38.75 13.88ZM75 46.27H60V43.96C60 40.13 63.364 37.02 67.5 37.02C71.636 37.02 75 40.13 75 43.96V46.27Z" fill="#FC8047"/>
<path d="M32.5 35.86H30C30 40.33 33.925 43.96 38.75 43.96V41.65C35.304 41.65 32.5 39.05 32.5 35.86Z" fill="#FC8047"/>
<path d="M38.75 27.76V30.08C42.196 30.08 45 32.67 45 35.86H47.5C47.5 31.4 43.575 27.76 38.75 27.76Z" fill="#FC8047"/>
</svg>
