<svg width="45" height="40" viewBox="0 0 45 40" fill="none" xmlns="http://www.w3.org/2000/svg">
<path d="M41.6599 0H2.78003C2.04003 0 1.32994 0.292965 0.809937 0.813965C0.289937 1.33496 0 2.04102 0 2.77802V30.556C0 31.293 0.289937 31.999 0.809937 32.52C1.32994 33.041 2.04003 33.334 2.78003 33.334H23.61L24.4 32.361L25.6899 30.778L25.5699 30.556H2.78003V2.77802H41.6599V14.667C42.7199 15.35 43.6599 16.199 44.4399 17.181V2.77802C44.4399 2.04102 44.15 1.33496 43.63 0.813965C43.11 0.292965 42.3999 0 41.6599 0Z" fill="#5CBCD2"/>
<path d="M6.93994 8.33398H30.5499V10.556H6.93994V8.33398Z" fill="#5CBCD2"/>
<path d="M6.93994 13.889H22.22V16.112H6.93994V13.889Z" fill="#5CBCD2"/>
<path d="M6.93994 23.611H20.83V25.834H6.93994V23.611Z" fill="#5CBCD2"/>
<path d="M35.36 15.597C33.58 15.583 31.84 16.106 30.37 17.096C28.89 18.087 27.75 19.5 27.09 21.15C26.43 22.8 26.2799 24.611 26.6699 26.346C27.0499 28.081 27.95 29.66 29.25 30.875L26.55 34.167L27.8 39.181L32.89 32.986C34.5 33.462 36.21 33.462 37.82 32.986L42.9 39.181L44.15 34.167L41.46 30.875C42.75 29.66 43.6499 28.081 44.0399 26.346C44.4199 24.611 44.28 22.8 43.62 21.15C42.96 19.5 41.81 18.087 40.34 17.096C38.86 16.106 37.12 15.583 35.35 15.597H35.36ZM35.36 30.431C34.18 30.414 33.03 30.049 32.06 29.382C31.08 28.714 30.33 27.773 29.89 26.678C29.45 25.583 29.34 24.382 29.58 23.227C29.82 22.071 30.4 21.012 31.24 20.183C32.08 19.354 33.15 18.793 34.3 18.568C35.46 18.344 36.66 18.467 37.75 18.923C38.84 19.378 39.77 20.145 40.43 21.128C41.08 22.11 41.43 23.264 41.43 24.445C41.41 26.042 40.77 27.569 39.63 28.691C38.49 29.813 36.96 30.438 35.36 30.431Z" fill="#5CBCD2"/>
</svg>
