<svg width="75" height="65" viewBox="0 0 75 65" fill="none" xmlns="http://www.w3.org/2000/svg">
<path d="M70.937 0H4.06201C2.98501 0 1.95298 0.399976 1.19098 1.09998C0.429979 1.80998 0.001 2.76001 0 3.76001V49.46C0.001 50.45 0.429979 51.41 1.19098 52.11C1.95298 52.82 2.98501 53.21 4.06201 53.22H30V57.84H26.25C25.971 57.84 25.7 57.93 25.481 58.09C25.261 58.25 25.105 58.47 25.037 58.72L23.787 63.35C23.741 63.52 23.738 63.7 23.777 63.87C23.817 64.04 23.898 64.2 24.015 64.34C24.132 64.48 24.281 64.59 24.452 64.67C24.623 64.74 24.81 64.78 25 64.79H50C50.19 64.78 50.377 64.74 50.548 64.67C50.719 64.59 50.868 64.48 50.985 64.34C51.102 64.2 51.183 64.04 51.223 63.87C51.262 63.7 51.259 63.52 51.213 63.35L49.963 58.72C49.895 58.47 49.739 58.25 49.519 58.09C49.3 57.93 49.029 57.84 48.75 57.84H45V53.22H70.937C72.014 53.21 73.047 52.82 73.809 52.11C74.57 51.41 74.999 50.45 75 49.46V3.76001C74.999 2.76001 74.57 1.80998 73.809 1.09998C73.047 0.399976 72.014 0 70.937 0ZM47.774 60.16L48.399 62.47H26.601L27.226 60.16H47.774ZM37.5 56.6899C38.494 56.6899 39.447 56.32 40.15 55.67C40.853 55.02 41.249 54.14 41.25 53.22H42.5V57.84H32.5V53.22H33.75C33.751 54.14 34.147 55.02 34.85 55.67C35.553 56.32 36.506 56.6899 37.5 56.6899ZM36.25 53.22H38.75C38.75 53.52 38.618 53.82 38.384 54.03C38.149 54.25 37.832 54.37 37.5 54.37C37.168 54.37 36.851 54.25 36.616 54.03C36.382 53.82 36.25 53.52 36.25 53.22ZM72.5 49.46C72.5 49.84 72.335 50.21 72.042 50.48C71.749 50.75 71.352 50.9 70.937 50.9H4.06201C3.64801 50.9 3.25101 50.75 2.95801 50.48C2.66501 50.21 2.5 49.84 2.5 49.46V3.76001C2.5 3.37001 2.66501 3.00999 2.95801 2.73999C3.25101 2.45999 3.64801 2.30994 4.06201 2.30994H70.937C71.352 2.30994 71.749 2.45999 72.042 2.73999C72.335 3.00999 72.5 3.37001 72.5 3.76001V49.46Z" fill="#FC8047"/>
<path d="M68.75 4.63H6.25C5.919 4.63 5.60103 4.74996 5.36603 4.95996C5.13203 5.17996 5 5.48003 5 5.78003V47.4301C5 47.7401 5.13203 48.03 5.36603 48.25C5.60103 48.47 5.919 48.59 6.25 48.59H68.75C69.082 48.59 69.4 48.47 69.634 48.25C69.868 48.03 70 47.7401 70 47.4301V5.78003C70 5.48003 69.868 5.17996 69.634 4.95996C69.4 4.74996 69.082 4.63 68.75 4.63ZM12.5 40.49V41.65H11.25V39.33H12.583C12.529 39.62 12.5 40.49 12.5 40.49ZM17.5 46.27H15V41.97L17.5 42.55V46.27ZM27.5 41.65V46.27H20V41.65C20 41.39 19.907 41.1401 19.735 40.9301C19.564 40.7301 19.324 40.59 19.053 40.52L15.078 39.6C15.148 39.33 15.266 39.0599 15.429 38.8199H15.43C15.641 38.5099 15.921 38.24 16.253 38.04C16.584 37.83 16.959 37.7 17.352 37.64L20.751 37.11C21.549 37.85 22.627 38.26 23.751 38.26C24.875 38.26 25.954 37.85 26.751 37.11L30.151 37.64C30.697 37.72 31.205 37.95 31.61 38.3C32.014 38.65 32.298 39.11 32.424 39.6L28.448 40.52C28.177 40.59 27.937 40.7301 27.765 40.9301C27.594 41.1401 27.5 41.39 27.5 41.65ZM28.384 26.95L25.884 24.63C25.698 24.46 25.459 24.3499 25.2 24.3099C24.941 24.2699 24.676 24.31 24.441 24.41L19.441 26.73C19.233 26.82 19.059 26.97 18.937 27.16C18.815 27.34 18.75 27.55 18.75 27.76V30.08C18.749 31.2 19.194 32.29 20 33.13V34.88L19.036 35.03C18.042 33.98 17.496 32.63 17.5 31.23V26.61C17.5 25.07 18.159 23.6 19.331 22.52C20.503 21.43 22.092 20.8199 23.75 20.8199C25.408 20.8199 26.997 21.43 28.169 22.52C29.342 23.6 30 25.07 30 26.61V31.23C30.004 32.63 29.458 33.98 28.464 35.03L27.5 34.88V33.13C28.306 32.29 28.751 31.2 28.75 30.08V27.76C28.75 27.61 28.718 27.4599 28.655 27.3199C28.592 27.1799 28.5 27.05 28.384 26.95ZM23.75 32.39C23.087 32.39 22.452 32.15 21.983 31.71C21.514 31.28 21.251 30.69 21.25 30.08V28.48L24.753 26.86L26.25 28.24V30.08C26.249 30.69 25.986 31.28 25.517 31.71C25.048 32.15 24.413 32.39 23.75 32.39ZM25 34.5599V35.46C24.837 35.61 24.643 35.7299 24.428 35.8199C24.213 35.8999 23.983 35.9399 23.75 35.9399C23.517 35.9399 23.287 35.8999 23.072 35.8199C22.857 35.7299 22.663 35.61 22.5 35.46V34.5599C23.32 34.7499 24.18 34.7499 25 34.5599ZM32.849 46.27H30V42.55L32.74 41.92L33.299 45.02L32.849 46.27ZM33.74 37.02C33.072 36.29 32.187 35.76 31.196 35.49C32.052 34.21 32.504 32.74 32.5 31.23V26.61C32.5 24.46 31.578 22.4 29.937 20.88C28.296 19.36 26.071 18.51 23.75 18.51C21.429 18.51 19.204 19.36 17.563 20.88C15.922 22.4 15 24.46 15 26.61V31.23C14.997 32.74 15.448 34.21 16.304 35.49C15.313 35.76 14.428 36.29 13.759 37.02H12.5V13.88H62.5V37.02H43.75C43.75 36.71 43.618 36.42 43.384 36.2C43.149 35.98 42.832 35.86 42.5 35.86H41.657L43.702 29.24C43.747 29.09 43.761 28.94 43.742 28.79C43.723 28.64 43.673 28.49 43.593 28.36C43.513 28.23 43.406 28.11 43.278 28.01C43.149 27.92 43.002 27.8499 42.844 27.8099C42.686 27.7699 42.521 27.75 42.358 27.77C42.195 27.79 42.037 27.84 41.893 27.91C41.75 27.98 41.623 28.08 41.521 28.2C41.419 28.32 41.343 28.46 41.298 28.6L39.057 35.86H37.5C37.238 35.86 36.982 35.94 36.769 36.08C36.556 36.22 36.397 36.42 36.314 36.65L36.182 37.02H33.74ZM63.75 39.33V41.65H42.795L43.059 41.52C43.267 41.43 43.441 41.28 43.563 41.1C43.685 40.92 43.75 40.7 43.75 40.49V39.33H63.75ZM35.022 40.24L34.999 40.11C34.993 39.85 34.966 39.59 34.916 39.33H35.349L35.022 40.24ZM38.774 41.42L38.526 42.5699H38.525L37.725 46.27H35.484L38.401 38.1801H41.25V39.77L39.441 40.61C39.271 40.69 39.122 40.7999 39.007 40.9399C38.891 41.0799 38.812 41.25 38.774 41.42ZM67.5 46.27H40.275L40.775 43.96H65C65.331 43.96 65.649 43.84 65.884 43.62C66.118 43.4 66.25 43.11 66.25 42.8V38.1801C66.25 37.8701 66.118 37.57 65.884 37.36C65.649 37.14 65.331 37.02 65 37.02V12.72C65 12.42 64.869 12.12 64.634 11.91C64.399 11.69 64.082 11.5699 63.75 11.5699H11.25C10.919 11.5699 10.601 11.69 10.366 11.91C10.132 12.12 10 12.42 10 12.72V37.02C9.668 37.02 9.35103 37.14 9.11603 37.36C8.88203 37.57 8.75 37.8701 8.75 38.1801V42.8C8.75 43.11 8.88203 43.4 9.11603 43.62C9.35103 43.84 9.668 43.96 10 43.96H12.5V46.27H7.5V6.93994H67.5V46.27Z" fill="#FC8047"/>
<path d="M45.132 24.8099C45.235 24.9999 45.395 25.16 45.592 25.28C45.79 25.39 46.017 25.45 46.249 25.45C46.279 25.45 46.309 25.45 46.338 25.45C46.585 25.43 46.821 25.35 47.016 25.21C47.212 25.07 47.358 24.88 47.436 24.66L49.65 18.51H58.75C59.081 18.51 59.399 18.39 59.633 18.17C59.868 17.95 59.999 17.66 59.999 17.35C59.999 17.04 59.868 16.75 59.633 16.53C59.399 16.32 59.081 16.1899 58.75 16.1899H48.75C48.487 16.1899 48.231 16.27 48.019 16.41C47.806 16.55 47.647 16.76 47.564 16.99L46.018 21.28L44.867 19.15C44.718 18.88 44.458 18.6699 44.144 18.5699C43.831 18.4799 43.49 18.5 43.195 18.64C42.9 18.78 42.675 19.01 42.57 19.3C42.464 19.59 42.486 19.9101 42.632 20.1801L45.132 24.8099Z" fill="#FC8047"/>
<path d="M51.616 25.11C51.732 25.22 51.87 25.3 52.022 25.36C52.173 25.42 52.336 25.45 52.5 25.45C52.664 25.45 52.827 25.42 52.978 25.36C53.13 25.3 53.268 25.22 53.384 25.11L54.375 24.1899L55.366 25.11C55.482 25.22 55.62 25.3 55.772 25.36C55.923 25.42 56.086 25.45 56.25 25.45C56.414 25.45 56.577 25.42 56.728 25.36C56.88 25.3 57.018 25.22 57.134 25.11C57.25 25 57.342 24.88 57.405 24.74C57.468 24.6 57.5 24.44 57.5 24.29C57.5 24.14 57.468 23.99 57.405 23.85C57.342 23.71 57.25 23.58 57.134 23.47L56.143 22.5599L57.134 21.64C57.368 21.42 57.5 21.1299 57.5 20.8199C57.5 20.5199 57.368 20.22 57.134 20C56.9 19.79 56.582 19.67 56.25 19.67C55.919 19.67 55.601 19.79 55.366 20L54.375 20.92L53.384 20C53.15 19.79 52.832 19.67 52.5 19.67C52.169 19.67 51.851 19.79 51.616 20C51.382 20.22 51.25 20.5199 51.25 20.8199C51.25 21.1299 51.382 21.42 51.616 21.64L52.607 22.5599L51.616 23.47C51.5 23.58 51.408 23.71 51.345 23.85C51.282 23.99 51.25 24.14 51.25 24.29C51.25 24.44 51.282 24.6 51.345 24.74C51.408 24.88 51.5 25 51.616 25.11Z" fill="#FC8047"/>
<path d="M47.5 30.08H48.75C49.082 30.08 49.399 29.96 49.634 29.74C49.868 29.52 50 29.23 50 28.92C50 28.61 49.868 28.32 49.634 28.1C49.399 27.89 49.082 27.76 48.75 27.76H47.5C47.169 27.76 46.851 27.89 46.616 28.1C46.382 28.32 46.25 28.61 46.25 28.92C46.25 29.23 46.382 29.52 46.616 29.74C46.851 29.96 47.169 30.08 47.5 30.08Z" fill="#FC8047"/>
<path d="M58.75 27.76H52.5C52.169 27.76 51.851 27.89 51.616 28.1C51.382 28.32 51.25 28.61 51.25 28.92C51.25 29.23 51.382 29.52 51.616 29.74C51.851 29.96 52.169 30.08 52.5 30.08H58.75C59.082 30.08 59.399 29.96 59.634 29.74C59.868 29.52 60 29.23 60 28.92C60 28.61 59.868 28.32 59.634 28.1C59.399 27.89 59.082 27.76 58.75 27.76Z" fill="#FC8047"/>
<path d="M53.75 32.39H47.5C47.169 32.39 46.851 32.51 46.616 32.73C46.382 32.95 46.25 33.24 46.25 33.55C46.25 33.86 46.382 34.15 46.616 34.37C46.851 34.58 47.169 34.71 47.5 34.71H53.75C54.082 34.71 54.399 34.58 54.634 34.37C54.868 34.15 55 33.86 55 33.55C55 33.24 54.868 32.95 54.634 32.73C54.399 32.51 54.082 32.39 53.75 32.39Z" fill="#FC8047"/>
</svg>
